<svg width="460" height="460" viewBox="0 0 460 460" fill="none" xmlns="http://www.w3.org/2000/svg">
<circle cx="230" cy="230" r="230" fill="#052D23"/>
<path d="M109.04 152.331L239.584 352.666L240.028 353.347H240.841H277.926H280.679L279.186 351.033L234.571 281.914L328.217 123.195L328.55 322.452V322.455V326.896C328.55 332.898 326.527 338.06 322.456 342.453L322.449 342.46L322.442 342.468C318.479 346.859 313.588 349.305 307.697 349.84L306.333 349.964V351.334V351.847V353.347H307.833H380.807H382.307V351.847V351.334V349.962L380.94 349.84C374.934 349.304 369.928 346.855 365.855 342.467C361.885 337.954 359.919 332.783 359.919 326.896V133.951C359.919 128.058 361.887 122.948 365.854 118.551C369.933 114.044 374.939 111.543 380.94 111.007L382.307 110.885V109.513V109V107.5H380.807H331.075H330.218L329.783 108.238L230.682 276.389L119.044 108.171L118.599 107.5H117.794H82.9307H80.1687L81.6725 109.817L94.3174 129.297C94.3176 129.297 94.3178 129.297 94.318 129.298C100.195 138.391 103.135 148.475 103.135 159.586V313.384C103.023 321.404 100.72 328.751 96.2121 335.458L96.209 335.463C91.8206 342.045 85.9063 346.868 78.4289 349.947L77.5 350.329V351.334V351.847V353.347H79H133.346H134.846V351.847V351.334V350.329L133.917 349.947C126.445 346.87 120.411 341.991 115.791 335.285C111.283 328.465 109.04 321.065 109.04 313.053V152.331Z" fill="#F3C522" stroke="#F3C522" stroke-width="3"/>
</svg>
